<svg width="395" height="452" viewBox="0 0 395 452" fill="none" xmlns="http://www.w3.org/2000/svg">
<path fill-rule="evenodd" clip-rule="evenodd" d="M0 115.146L69.5881 72.7241L177.224 130.802L28.0355 222.212L0 205.546V115.146Z" fill="#8F5DFF"/>
<path fill-rule="evenodd" clip-rule="evenodd" d="M115.646 77.7743L116.648 45.9575L195.247 0L265.336 38.8871L271.344 162.619L115.646 77.7743Z" fill="#F4B13C"/>
<path fill-rule="evenodd" clip-rule="evenodd" d="M285.361 81.3096L312.896 65.1487L393.999 111.106L395 189.386L289.867 257.059L287.864 170.7L285.361 81.3096Z" fill="#EF3E8C"/>
<path fill-rule="evenodd" clip-rule="evenodd" d="M366.464 228.778L394.499 246.454L393.498 337.359L318.403 380.286L215.272 320.693L290.367 275.745L366.464 228.778Z" fill="#8F5DFF"/>
<path fill-rule="evenodd" clip-rule="evenodd" d="M275.349 377.256L274.347 406.043L196.749 452L126.661 413.113L123.657 287.866L196.749 330.288L275.349 377.256Z" fill="#F4B13C"/>
<path fill-rule="evenodd" clip-rule="evenodd" d="M105.133 195.446L108.137 371.701L80.6021 387.357L1.502 341.904L0.500732 259.08L105.133 195.446Z" fill="#EF3E8C"/>
</svg>
