<svg width="24" height="24" viewBox="0 0 24 24" xmlns="http://www.w3.org/2000/svg">
 <g fill="#0078D7">
  <path d="m0.10309,0.20618l23.69072,0l0,23.48454l-23.69072,0l0,-23.48454z" fill="none" id="svg_2" stroke="null"/>
  <path stroke="null" d="m4.11778,4.24938l1.57625,1.54908c-1.67507,1.6434 -2.61481,3.87555 -2.61191,6.20108c0,2.42269 0.99787,4.61484 2.61191,6.20108l-1.57528,1.54908c-2.09359,-2.05305 -3.26875,-4.84158 -3.26585,-7.75014c-0.0029,-2.90761 1.17129,-5.6971 3.26488,-7.75014l0.00001,-0.00002zm15.76347,0c2.09359,2.05305 3.26875,4.84253 3.26585,7.75014c0.0029,2.90856 -1.17225,5.69805 -3.26585,7.75111l-1.57528,-1.55003c1.67507,-1.6434 2.61481,-3.8746 2.61093,-6.20108c0,-2.42174 -0.99691,-4.61484 -2.61093,-6.20108l1.57431,-1.54813l0.00096,-0.00095l0.00001,0.00001zm-12.61097,3.09911l1.57722,1.55098c-0.83705,0.82122 -1.30789,1.93777 -1.30692,3.10006c0,1.21182 0.4999,2.30742 1.30692,3.10006l-1.57722,1.55098c-1.25655,-1.23183 -1.96086,-2.90571 -1.95892,-4.65104c0,-1.81583 0.74889,-3.46018 1.95892,-4.65104zm9.45944,0c1.25557,1.23278 1.96086,2.90666 1.95796,4.65104c0.0029,1.74533 -0.70239,3.41922 -1.95796,4.65104l-1.57722,-1.55098c0.83705,-0.82122 1.30692,-1.93682 1.30595,-3.10006c0.00096,-1.16228 -0.4689,-2.27884 -1.30595,-3.10006l1.57722,-1.55098zm-4.72971,6.84318c-1.71672,0 -2.7892,-1.82726 -1.93083,-3.28774c0.39818,-0.67927 1.13351,-1.09655 1.93083,-1.09655c1.71672,0 2.7892,1.82726 1.93083,3.28869c-0.39818,0.67832 -1.13447,1.0956 -1.93083,1.0956z" id="svg_3"/>
 </g>
</svg>