<?xml version="1.0" encoding="UTF-8"?>
<svg xmlns="http://www.w3.org/2000/svg" width="15pt" height="14pt" viewBox="0 0 15 14" version="1.1">
<defs>
<linearGradient id="linear0" gradientUnits="userSpaceOnUse" x1="1.086334" y1="0.13818" x2="0.469266" y2="0.787761" gradientTransform="matrix(12.070313,0,0,9.257812,2.261719,4.679688)">
<stop offset="0.18" style="stop-color:rgb(0%,32.156863%,80%);stop-opacity:1;"/>
<stop offset="1" style="stop-color:rgb(14.901961%,51.764706%,100%);stop-opacity:1;"/>
</linearGradient>
</defs>
<g id="surface1">
<path style=" stroke:none;fill-rule:nonzero;fill:rgb(14.901961%,51.764706%,100%);fill-opacity:1;" d="M 0.488281 0 C 0.34375 0 0.210938 0.0625 0.117188 0.171875 C 0.0234375 0.285156 -0.015625 0.433594 0.0078125 0.578125 L 2.046875 13.386719 C 2.097656 13.710938 2.367188 13.949219 2.6875 13.953125 L 12.472656 13.953125 C 12.710938 13.953125 12.914062 13.777344 12.953125 13.535156 L 14.992188 0.578125 C 15.015625 0.433594 14.976562 0.285156 14.882812 0.175781 C 14.789062 0.0625 14.65625 0 14.511719 0.00390625 Z M 9.078125 9.257812 L 5.953125 9.257812 L 5.109375 4.6875 L 9.835938 4.6875 Z M 9.078125 9.257812 "/>
<path style=" stroke:none;fill-rule:nonzero;fill:url(#linear0);" d="M 14.332031 4.679688 L 9.824219 4.679688 L 9.070312 9.25 L 5.949219 9.25 L 2.261719 13.773438 C 2.378906 13.878906 2.527344 13.9375 2.683594 13.9375 L 12.464844 13.9375 C 12.703125 13.941406 12.90625 13.761719 12.945312 13.519531 Z M 14.332031 4.679688 "/>
</g>
</svg>
