<?xml version="1.0" encoding="utf-8"?>
<!-- Generator: Adobe Illustrator 22.0.0, SVG Export Plug-In . SVG Version: 6.00 Build 0)  -->
<svg version="1.1" id="Layer_2" xmlns="http://www.w3.org/2000/svg" xmlns:xlink="http://www.w3.org/1999/xlink" x="0px" y="0px"
	 viewBox="0 0 395 452" style="enable-background:new 5 5 390 447;">
<style type="text/css">
	.st0{fill-rule:evenodd;clip-rule:evenodd;fill:#424242;}
</style>
<polygon class="st0" points="2,116.5 71.5,74.5 179,132 30,222.5 2,206 "/>
<polygon class="st0" points="117.5,79.5 118.5,48 197,2.5 267,41 273,163.5 "/>
<polygon class="st0" points="287,83 314.5,67 395.5,112.5 396.5,190 291.5,257 289.5,171.5 "/>
<path class="st0" d="M367.5,231"/>
<polygon class="st0" points="368,229 396,246.5 395,336.5 320,379 217,320 292,275.5 "/>
<polygon class="st0" points="277,376 276,404.5 198.5,450 128.5,411.5 125.5,287.5 198.5,329.5 "/>
<polygon class="st0" points="107,196 110,370.5 82.5,386 3.5,341 2.5,259 "/>
</svg>