<svg version="1.1" id="Layer_1" xmlns="http://www.w3.org/2000/svg" x="0" y="0" viewBox="-467 269 24 24" xml:space="preserve"><style>.st0{fill:#424242}</style><path class="st0" d="M-464.8 271.2l-1.2 1.2 3.9 3.8-.5 1.4h1.9l2.4 2.4c-3 .3-5.9 1.2-8.6 2.6h11.3l2.5 2.5c-.3.4-.5.8-.7 1.2-1-.3-1.9-.3-2.8-.1-.6-1.4-1.9-2.4-3.6-2.4-2.1 0-3.8 1.7-3.8 3.8 0 2.1 1.7 3.8 3.8 3.8 2.1 0 3.8-1.7 3.8-3.8v-.4c.8-.2 1.6-.1 2.4.2v.3c0 2.1 1.7 3.8 3.8 3.8 1 0 1.9-.4 2.6-1l1.2 1.2 1.2-1.3-19.6-19.2zm4.5 19.3c-1.6 0-2.8-1.3-2.8-2.8s1.3-2.8 2.8-2.8c1.2 0 2.2.7 2.6 1.7.1.3.2.6.2 1.1 0 1.6-1.3 2.8-2.8 2.8zm10 0c-1.6 0-2.8-1.3-2.8-2.8 0-.7.3-1.3.7-1.8l3.9 3.9c-.5.4-1.1.7-1.8.7zM-449.8 283.9l3.3 3.2c-.4-1.7-1.7-3-3.3-3.2zM-451 282.7h6.9c-3.1-1.6-6.3-2.5-9.6-2.7l2.7 2.7zM-456 277.7h7.9l-2.2-6.7-6.8 1.1-3.3-1.1-.6 1.8z"/></svg>