<svg width="395" height="452" viewBox="0 0 395 452" fill="none" xmlns="http://www.w3.org/2000/svg">
<g clip-path="url(#clip0)">
<path fill-rule="evenodd" clip-rule="evenodd" d="M2 116.5L71.5 74.5L179 132L30 222.5L2 206V116.5Z" fill="#6A47B9"/>
<path fill-rule="evenodd" clip-rule="evenodd" d="M117.5 79.5L118.5 48L197 2.5L267 41L273 163.5L117.5 79.5Z" fill="#FFAE22"/>
<path fill-rule="evenodd" clip-rule="evenodd" d="M287 83L314.5 67L395.5 112.5L396.5 190L291.5 257L289.5 171.5L287 83Z" fill="#FD0371"/>
<path fill-rule="evenodd" clip-rule="evenodd" d="M368 229L396 246.5L395 336.5L320 379L217 320L292 275.5L368 229Z" fill="#6A47B9"/>
<path fill-rule="evenodd" clip-rule="evenodd" d="M277 376L276 404.5L198.5 450L128.5 411.5L125.5 287.5L198.5 329.5L277 376Z" fill="#FFAE22"/>
<path fill-rule="evenodd" clip-rule="evenodd" d="M107 196L110 370.5L82.5 386L3.5 341L2.5 259L107 196Z" fill="#FD0371"/>
</g>
<defs>
<clipPath id="clip0">
<rect width="395" height="452" fill="white"/>
</clipPath>
</defs>
</svg>
